<svg width="120" height="120" viewBox="0 0 120 120" fill="none" xmlns="http://www.w3.org/2000/svg">
<g id="Frame 10684">
<g id="Group">
<g id="Group_2">
<path id="Vector" d="M93.234 16H39.3329C34.4964 16 30.5667 19.9462 30.5667 24.7725V26.2026C25.0652 30.9465 22.4146 38.4069 24.0267 45.7688C24.5764 48.2575 25.5656 50.5813 26.9396 52.6438C22.9412 55.6137 19.2041 59.2162 18.5444 60.0138C15.2109 63.9117 14.9968 69.88 18.8331 73.1176C22.0259 75.8298 27.0053 75.5807 30.5667 72.4575V95.2413C30.5667 100.068 34.4964 104 39.3329 104H93.234C98.0704 104 102 100.068 102 95.2413V24.7725C102 19.9462 98.0704 16 93.234 16ZM39.9511 24.4838C49.2965 22.4432 58.5783 28.3438 60.6295 37.7525C62.6831 47.1436 56.7481 56.4018 47.3844 58.4462C38.0932 60.4815 28.788 54.5431 26.7197 45.1775C24.6896 35.8508 30.566 26.5591 39.9511 24.4838ZM99.252 95.2413C99.252 98.5551 96.5452 101.25 93.234 101.25H39.3329C36.0078 101.25 33.3147 98.5551 33.3147 95.2413V69.1438C36.1669 64.8623 37.9885 60.956 38.0688 60.8113C41.1316 61.717 44.4949 61.8906 47.9753 61.1275C58.8484 58.7348 65.6925 48.0089 63.3087 37.1613C60.9678 26.3801 50.3144 19.3982 39.3604 21.8025C37.1756 22.2838 35.1559 23.095 33.3422 24.195C33.6446 21.1426 36.2002 18.75 39.3329 18.75H93.234C96.5452 18.75 99.252 21.4588 99.252 24.7725V95.2413Z" fill="white" fill-opacity="0.4"/>
<path id="Vector_2" d="M75.659 39.5452H88.6269C90.3471 39.5452 91.7449 38.1466 91.7449 36.4387V32.3502C91.7449 30.6424 90.3471 29.2437 88.6269 29.2437H75.659C73.9522 29.2437 72.5544 30.6424 72.5544 32.3502V36.4387C72.5544 38.1466 73.9522 39.5452 75.659 39.5452Z" fill="white" fill-opacity="0.4"/>
<path id="Vector_3" d="M92.9234 44.4531H71.3664C70.607 44.4531 69.9924 45.0688 69.9924 45.8281C69.9924 46.5875 70.607 47.2031 71.3664 47.2031H92.9234C93.6828 47.2031 94.2974 46.5875 94.2974 45.8281C94.2974 45.0688 93.6828 44.4531 92.9234 44.4531Z" fill="white" fill-opacity="0.4"/>
<path id="Vector_4" d="M92.9233 58.1465H59.4675C58.708 58.1465 58.0935 58.7621 58.0935 59.5215C58.0935 60.2808 58.708 60.8965 59.4675 60.8965H92.9233C93.6828 60.8965 94.2973 60.2808 94.2973 59.5215C94.2973 58.7621 93.6828 58.1465 92.9233 58.1465Z" fill="white" fill-opacity="0.4"/>
<path id="Vector_5" d="M92.9233 66.4136H41.0422C40.2827 66.4136 39.6682 67.0292 39.6682 67.7886C39.6682 68.5479 40.2827 69.1636 41.0422 69.1636H92.9233C93.6827 69.1636 94.2973 68.5479 94.2973 67.7886C94.2973 67.0292 93.6827 66.4136 92.9233 66.4136Z" fill="white" fill-opacity="0.4"/>
<path id="Vector_6" d="M92.9233 74.6816H41.0422C40.2827 74.6816 39.6682 75.2973 39.6682 76.0566C39.6682 76.816 40.2827 77.4316 41.0422 77.4316H92.9233C93.6827 77.4316 94.2973 76.816 94.2973 76.0566C94.2973 75.2973 93.6827 74.6816 92.9233 74.6816Z" fill="white" fill-opacity="0.4"/>
<path id="Vector_7" d="M92.9233 82.9492H41.0422C40.2827 82.9492 39.6682 83.5649 39.6682 84.3242C39.6682 85.0836 40.2827 85.6992 41.0422 85.6992H92.9233C93.6827 85.6992 94.2973 85.0836 94.2973 84.3242C94.2973 83.5649 93.6827 82.9492 92.9233 82.9492Z" fill="white" fill-opacity="0.4"/>
<path id="Vector_8" d="M68.2185 91.2168H41.0422C40.2827 91.2168 39.6682 91.8325 39.6682 92.5918C39.6682 93.3511 40.2827 93.9668 41.0422 93.9668H68.2185C68.978 93.9668 69.5925 93.3511 69.5925 92.5918C69.5925 91.8325 68.978 91.2168 68.2185 91.2168Z" fill="white" fill-opacity="0.4"/>
<path id="Vector_9" d="M30.6767 44.3113C32.304 51.6967 39.6088 56.0412 46.5325 54.4725C53.8579 52.8787 58.1919 45.6508 56.686 38.6187C55.1061 31.4687 47.989 26.89 40.8442 28.43C33.8161 29.993 29.104 36.9728 30.6767 44.3113ZM37.5054 45.1913C38.2336 43.6787 39.484 42.4687 41.0366 41.8225C40.1983 41.1075 39.6764 40.0213 39.6764 38.825C39.6764 36.625 41.4626 34.8237 43.6745 34.8237C45.8868 34.8237 47.6728 36.625 47.6728 38.825C47.6728 40.0213 47.1507 41.0937 46.3264 41.8225C47.879 42.4687 49.1292 43.6787 49.8437 45.205C50.4894 46.5387 49.5002 48.0787 48.0301 48.0787H39.3191C37.8489 48.0787 36.8596 46.5387 37.5054 45.1913Z" fill="white" fill-opacity="0.4"/>
</g>
</g>
</g>
</svg>
