<svg width="120" height="120" viewBox="0 0 120 120"  xmlns="http://www.w3.org/2000/svg">
<path d="M25.879 86.9346C26.0016 86.9651 26.1088 86.9804 26.2314 86.9804C26.7219 86.9804 27.1663 86.6752 27.3349 86.1869L28.6375 82.0974C28.8214 81.487 28.4996 80.8461 27.8866 80.663C27.2736 80.4646 26.6299 80.8003 26.446 81.4107L25.1433 85.5002C24.9441 86.1106 25.2813 86.7515 25.879 86.9346Z" fill="white" fill-opacity="0.4"/>
<path d="M24.4537 91.4367C24.5763 91.4672 24.6835 91.4977 24.8062 91.4977C25.2966 91.4977 25.741 91.1925 25.9096 90.7042L26.2008 89.8039C26.3847 89.2088 26.0628 88.5527 25.4498 88.3695C24.8521 88.1712 24.1931 88.5069 24.0092 89.1173L23.7181 90.0176C23.5188 90.5974 23.856 91.2383 24.4537 91.4367Z" fill="white" fill-opacity="0.4"/>
<path d="M94.5214 84.6459C94.3375 84.0507 93.6785 83.715 93.0808 83.8981C92.4678 84.0965 92.1459 84.7374 92.3298 85.3325L92.8969 87.1179C93.0501 87.6062 93.5099 87.9114 94.0003 87.9114C94.1076 87.9114 94.2302 87.8961 94.3528 87.8656C94.9658 87.6672 95.2876 87.0263 95.1037 86.4312L94.5214 84.6459Z" fill="white" fill-opacity="0.4"/>
<path d="M105.969 97.4942C105.954 97.0822 105.908 96.6702 105.739 96.2581L98.23 76.5125C97.4331 74.4067 94.1995 73.2622 91.5635 73.2622H75.5945C74.9661 73.2622 74.4451 73.781 74.4451 74.4067C74.4451 75.0323 74.9661 75.5511 75.5945 75.5511H83.3031L89.3567 99.3558H30.6145L36.6681 75.5511H48.5299C49.1582 75.5511 49.6793 75.0323 49.6793 74.4067C49.6793 73.781 49.1582 73.2622 48.5299 73.2622H28.423C25.787 73.2622 22.5534 74.4067 21.7565 76.5125L14.2317 96.2581C14.0325 96.7922 13.9712 97.3263 14.0172 97.8451C14.0172 97.8756 14.0018 97.9062 14.0018 97.9519V104.834C13.9712 105.765 14.3237 106.635 15.0286 107.352C16.0708 108.42 17.7566 109 19.7795 109H100.238C103.533 109 105.862 107.428 106 105.154C106 105.109 106 105.063 106 105.017V97.6162C106 97.5705 105.969 97.5399 105.969 97.4942ZM85.6786 75.5511H91.5635C93.9543 75.5511 95.8086 76.5888 96.0845 77.3212L103.594 97.0669C103.762 97.4942 103.717 97.8604 103.487 98.1961C103.104 98.7607 102.031 99.3558 100.207 99.3558H91.7321L85.6786 75.5511ZM16.3926 97.0669L23.902 77.3212C24.1779 76.5888 26.0323 75.5511 28.423 75.5511H34.308L28.2544 99.3558H19.7642C17.9405 99.3558 16.883 98.7607 16.4846 98.1961C16.2547 97.8604 16.224 97.4942 16.3926 97.0669ZM100.222 106.711H19.7642C18.4155 106.711 17.2508 106.345 16.6531 105.75C16.3926 105.49 16.27 105.2 16.2853 104.864V100.897C17.2355 101.37 18.4155 101.645 19.7642 101.645H100.222C101.571 101.645 102.751 101.385 103.701 100.897V104.925C103.701 105.948 102.199 106.711 100.222 106.711Z" fill="white" fill-opacity="0.4"/>
<path d="M79.8701 54.8602L80.4984 52.6628C80.667 52.0524 80.3145 51.4268 79.7168 51.2437C79.1038 51.0606 78.4755 51.4268 78.2916 52.0219L77.6632 54.2193C77.4947 54.8296 77.8472 55.4553 78.4448 55.6384C78.5521 55.6689 78.6594 55.6842 78.7667 55.6842C79.2571 55.6842 79.7169 55.3637 79.8701 54.8602Z" fill="white" fill-opacity="0.4"/>
<path d="M72.4067 80.7698L73.6481 76.4514C73.8167 75.841 73.4642 75.2154 72.8665 75.0322C72.2535 74.8491 71.6251 75.2154 71.4412 75.8105L70.1999 80.1289C70.0313 80.7393 70.3838 81.3649 70.9815 81.548C71.0887 81.5785 71.196 81.5938 71.3033 81.5938C71.809 81.6091 72.2688 81.2733 72.4067 80.7698Z" fill="white" fill-opacity="0.4"/>
<path d="M77.3874 63.4968L78.6288 59.1784C78.7974 58.568 78.4449 57.9424 77.8472 57.7593C77.2342 57.5762 76.6058 57.9424 76.4219 58.5375L75.1806 62.8559C75.012 63.4663 75.3645 64.092 75.9622 64.2751C76.0695 64.3056 76.1767 64.3208 76.284 64.3208C76.7744 64.3361 77.2342 64.0004 77.3874 63.4968Z" fill="white" fill-opacity="0.4"/>
<path d="M74.9048 72.1331L76.1461 67.8146C76.3147 67.2043 75.9622 66.5786 75.3645 66.3955C74.7515 66.2124 74.1232 66.5786 73.9393 67.1738L72.6979 71.4922C72.5293 72.1025 72.8818 72.7282 73.4795 72.9113C73.5868 72.9418 73.6941 72.9571 73.8013 72.9571C74.2918 72.9723 74.7515 72.6366 74.9048 72.1331Z" fill="white" fill-opacity="0.4"/>
<path d="M70.3838 83.6846C69.7708 83.5015 69.1425 83.8677 68.9586 84.4628L68.3302 86.6602C68.1617 87.2706 68.5141 87.8962 69.1118 88.0793C69.2191 88.1098 69.3264 88.1251 69.4337 88.1251C69.9394 88.1251 70.3992 87.8046 70.5371 87.3011L71.1654 85.1037C71.3493 84.4933 70.9969 83.8524 70.3838 83.6846Z" fill="white" fill-opacity="0.4"/>
<path d="M46.5222 54.2346L45.8939 52.0373C45.7253 51.4269 45.0817 51.0759 44.4686 51.259C43.8556 51.4269 43.5031 52.0678 43.6717 52.6781L44.3001 54.8755C44.438 55.3791 44.8977 55.6995 45.4035 55.6995C45.5108 55.6995 45.618 55.6843 45.7253 55.6537C46.3383 55.4706 46.6908 54.845 46.5222 54.2346Z" fill="white" fill-opacity="0.4"/>
<path d="M46.7828 63.4966C46.9207 64.0001 47.3805 64.3206 47.8862 64.3206C47.9935 64.3206 48.1008 64.3053 48.2081 64.2748C48.8211 64.1069 49.1736 63.466 48.9897 62.8557L47.7483 58.5373C47.5644 57.9269 46.9361 57.5759 46.3231 57.759C45.71 57.9269 45.3576 58.5678 45.5415 59.1781L46.7828 63.4966Z" fill="white" fill-opacity="0.4"/>
<path d="M51.7635 80.7851C51.9015 81.2887 52.3612 81.6091 52.867 81.6091C52.9742 81.6091 53.0815 81.5939 53.1888 81.5634C53.8018 81.3955 54.1543 80.7546 53.9704 80.1442L52.729 75.8258C52.5451 75.2154 51.9168 74.8645 51.3038 75.0476C50.6907 75.2154 50.3383 75.8563 50.5222 76.4667L51.7635 80.7851Z" fill="white" fill-opacity="0.4"/>
<path d="M49.2809 72.1338C49.4188 72.6373 49.8785 72.9578 50.3843 72.9578C50.4916 72.9578 50.5988 72.9425 50.7061 72.912C51.3191 72.7441 51.6716 72.1032 51.4877 71.4929L50.2464 67.1745C50.0778 66.5641 49.4341 66.2131 48.8211 66.3962C48.2081 66.5641 47.8556 67.205 48.0395 67.8153L49.2809 72.1338Z" fill="white" fill-opacity="0.4"/>
<path d="M53.6332 87.3013C53.7711 87.8048 54.2309 88.1253 54.7366 88.1253C54.8439 88.1253 54.9512 88.11 55.0584 88.0795C55.6714 87.9117 56.0239 87.2708 55.84 86.6604L55.2117 84.463C55.0431 83.8527 54.3994 83.5017 53.7864 83.6848C53.1734 83.8527 52.8209 84.4936 53.0048 85.1039L53.6332 87.3013Z" fill="white" fill-opacity="0.4"/>
<path d="M63.2422 59.2084C63.2422 58.5828 62.7211 58.064 62.0928 58.064C61.4644 58.064 60.9434 58.5828 60.9434 59.2084V61.4973C60.9434 62.123 61.4644 62.6418 62.0928 62.6418C62.7211 62.6418 63.2422 62.123 63.2422 61.4973V59.2084Z" fill="white" fill-opacity="0.4"/>
<path d="M63.2422 66.1362C63.2422 65.5105 62.7211 64.9917 62.0928 64.9917C61.4644 64.9917 60.9434 65.5105 60.9434 66.1362V70.775C60.9434 71.4007 61.4644 71.9195 62.0928 71.9195C62.7211 71.9195 63.2422 71.4007 63.2422 70.775V66.1362Z" fill="white" fill-opacity="0.4"/>
<path d="M63.2422 75.414C63.2422 74.7884 62.7211 74.2695 62.0928 74.2695C61.4644 74.2695 60.9434 74.7884 60.9434 75.414V80.0528C60.9434 80.6785 61.4644 81.1973 62.0928 81.1973C62.7211 81.1973 63.2422 80.6785 63.2422 80.0528V75.414Z" fill="white" fill-opacity="0.4"/>
<path d="M62.0928 83.5474C61.4644 83.5474 60.9434 84.0662 60.9434 84.6918V86.9807C60.9434 87.6064 61.4644 88.1252 62.0928 88.1252C62.7211 88.1252 63.2422 87.6064 63.2422 86.9807V84.6918C63.2422 84.0662 62.7211 83.5474 62.0928 83.5474Z" fill="white" fill-opacity="0.4"/>
<path d="M90.1494 53.7467C89.5211 53.7467 89 54.2655 89 54.8912C89 55.5168 89.5211 56.0356 90.1494 56.0356H91.7586V57.6378C91.7586 58.2635 92.2796 58.7823 92.908 58.7823C93.5363 58.7823 94.0574 58.2635 94.0574 57.6378V56.0356H95.6665C96.2949 56.0356 96.8159 55.5168 96.8159 54.8912C96.8159 54.2655 96.2949 53.7467 95.6665 53.7467H94.0574V52.1445C94.0574 51.5188 93.5363 51 92.908 51C92.2796 51 91.7586 51.5188 91.7586 52.1445V53.7467H90.1494Z" fill="white" fill-opacity="0.4"/>
<path d="M88.1494 45.2889H90.9693C91.5976 45.2889 92.1187 44.7701 92.1187 44.1445C92.1187 43.5188 91.5976 43 90.9693 43H88.1494C87.5211 43 87 43.5188 87 44.1445C87 44.7701 87.5211 45.2889 88.1494 45.2889Z" fill="white" fill-opacity="0.4"/>
<path d="M83 64.1445C83 64.7701 83.5211 65.2889 84.1494 65.2889H86.4635C87.0919 65.2889 87.6129 64.7701 87.6129 64.1445C87.6129 63.5188 87.0919 63 86.4635 63H84.1494C83.5211 63 83 63.5036 83 64.1445Z" fill="white" fill-opacity="0.4"/>
<path d="M35.6414 60.5512V62.1534H34.0322C33.4039 62.1534 32.8828 62.6723 32.8828 63.2979C32.8828 63.9235 33.4039 64.4423 34.0322 64.4423H35.6414V66.0446C35.6414 66.6702 36.1624 67.189 36.7908 67.189C37.4191 67.189 37.9402 66.6702 37.9402 66.0446V64.4423H39.5493C40.1777 64.4423 40.6987 63.9235 40.6987 63.2979C40.6987 62.6723 40.1777 62.1534 39.5493 62.1534H37.9402V60.5512C37.9402 59.9256 37.4191 59.4067 36.7908 59.4067C36.1624 59.4067 35.6414 59.9256 35.6414 60.5512Z" fill="white" fill-opacity="0.4"/>
<path d="M34.0629 41.9653C33.4345 41.9653 32.9135 42.4842 32.9135 43.1098V43.8117H32.2085C31.5801 43.8117 31.0591 44.3305 31.0591 44.9562C31.0591 45.5818 31.5801 46.1006 32.2085 46.1006H32.9135V46.8026C32.9135 47.4282 33.4345 47.947 34.0629 47.947C34.6912 47.947 35.2123 47.4282 35.2123 46.8026V46.1006H35.9172C36.5456 46.1006 37.0666 45.5818 37.0666 44.9562C37.0666 44.3305 36.5456 43.8117 35.9172 43.8117H35.2123V43.1098C35.2123 42.4689 34.7065 41.9653 34.0629 41.9653Z" fill="white" fill-opacity="0.4"/>
<path d="M27.5342 54.0814H29.8483C30.4766 54.0814 30.9977 53.5626 30.9977 52.9369C30.9977 52.3113 30.4766 51.7925 29.8483 51.7925H27.5342C26.9058 51.7925 26.3848 52.3113 26.3848 52.9369C26.3848 53.5626 26.9058 54.0814 27.5342 54.0814Z" fill="white" fill-opacity="0.4"/>
<circle cx="72" cy="19" r="8" fill="white" fill-opacity="0.4"/>
<path d="M57.1797 11H46.8203C45.265 11 44 12.0969 44 13.4448V24.5552C44 25.9031 45.265 27 46.8203 27H57.1797C58.735 27 60 25.9031 60 24.5552V13.4448C60 12.0969 58.735 11 57.1797 11Z" fill="white" fill-opacity="0.4"/>
<path d="M77.1797 31H66.8203C65.265 31 64 32.0969 64 33.4448V44.5552C64 45.9031 65.265 47 66.8203 47H77.1797C78.735 47 80 45.9031 80 44.5552V33.4448C80 32.0969 78.735 31 77.1797 31Z" fill="white" fill-opacity="0.4"/>
<path d="M57.1797 31H46.8203C45.265 31 44 32.0969 44 33.4448V44.5552C44 45.9031 45.265 47 46.8203 47H57.1797C58.735 47 60 45.9031 60 44.5552V33.4448C60 32.0969 58.735 31 57.1797 31Z" fill="white" fill-opacity="0.4"/>
</svg>
