<svg width="120" height="120" viewBox="0 0 120 120" xmlns="http://www.w3.org/2000/svg">
<g id="Frame 10689">
<path id="Vector" d="M93.868 26.132L60 12L26.132 26.132L12 60L26.0102 93.868L60 108L93.868 93.9899L108 60L93.868 26.132ZM104.954 58.1726L89.7259 54.0305C89.7259 53.7868 89.7259 53.5431 89.7259 53.2995C89.7259 50.8629 88.3858 48.6701 86.4365 47.4518L93.2589 29.5431L104.954 58.1726ZM54.8832 72.5482C54.5178 69.7462 52.934 67.4315 50.6193 66.0914L56.7107 51.3503C57.8071 51.7157 58.9036 51.8376 60 51.8376C61.0964 51.8376 62.3147 51.7157 63.2893 51.3503L70.8426 69.6244C69.868 70.3553 69.1371 71.3299 68.8934 72.5482H54.8832ZM73.6447 68.7716C73.401 68.7716 73.1574 68.7716 72.7919 68.8934L65.2386 50.6193C66.8223 49.7665 68.0406 48.5482 69.0152 47.0863L76.5685 51.2284C76.3249 51.9594 76.203 52.6904 76.203 53.4213C76.203 55.736 77.4213 57.8071 79.1269 59.0254L74.6193 68.8934C74.2538 68.7716 74.0102 68.7716 73.6447 68.7716ZM46.2335 64.8731C45.2589 64.8731 44.2843 64.9949 43.4315 65.3604L36.6091 51.2284C37.7056 50.3756 38.4365 49.0355 38.4365 47.4518C38.4365 47.4518 38.4365 47.4518 38.4365 47.3299L49.7665 44.5279C50.6193 47.0863 52.4467 49.2792 54.8832 50.4975L48.7919 65.1167C47.9391 64.9949 47.0863 64.8731 46.2335 64.8731ZM82.9036 46.7208C80.7107 46.7208 78.8832 47.6954 77.665 49.2792L70.1117 45.1371C70.7208 43.797 70.9645 42.335 70.9645 40.8731C70.9645 39.6548 70.7208 38.5584 70.3553 37.4619L91.066 28.8122L84.3655 46.8426C83.8782 46.7208 83.3909 46.7208 82.9036 46.7208ZM49.1574 42.4569L37.8274 45.2589C36.9746 43.6751 35.3909 42.5787 33.4416 42.5787C33.3198 42.5787 33.198 42.5787 33.0761 42.5787L28.6904 28.8122L49.5228 37.4619C49.1574 38.5584 48.9137 39.6548 48.9137 40.8731C49.0355 41.4822 49.0355 41.9695 49.1574 42.4569ZM30.0305 50.8629C30.8832 51.7157 32.1015 52.3249 33.4416 52.3249C33.8071 52.3249 34.1726 52.3249 34.5381 52.203L41.3604 66.335C40.1421 67.066 39.1675 68.1624 38.4365 69.3807L15.6548 60L30.0305 50.8629ZM76.5685 69.7462L81.198 59.8782C81.8071 60 82.4162 60.1218 83.0254 60.1218C85.7056 60.1218 88.1421 58.5381 89.1168 56.2234L103.858 60.1218L77.665 70.9645C77.4213 70.4772 76.934 70.1117 76.5685 69.7462ZM69.5025 35.5127C67.797 32.467 64.6294 30.3959 61.0965 30.0305V14.802L90.335 26.8629L69.5025 35.5127ZM58.9036 14.802V30.0305C55.2487 30.3959 52.203 32.467 50.4975 35.5127L29.665 26.8629L58.9036 14.802ZM26.8629 29.7868L31.1269 43.1878C29.665 44.0406 28.6904 45.6244 28.6904 47.3299C28.6904 47.9391 28.8122 48.4264 29.0558 49.0355L15.4112 57.6853L26.8629 29.7868ZM15.1675 61.9492L37.7056 71.3299C37.4619 72.0609 37.3401 72.7919 37.3401 73.6447C37.3401 75.7157 38.0711 77.5431 39.2893 79.1269L27.2284 91.3096L15.1675 61.9492ZM28.8122 92.7716L40.8731 80.5888C42.335 81.6853 44.1624 82.4162 46.2335 82.4162C47.0863 82.4162 47.9391 82.2944 48.6701 82.0508L58.0508 104.832L28.8122 92.7716ZM50.6193 81.198C52.934 79.8579 54.6396 77.4213 54.8832 74.6193H68.8934C69.1371 75.8376 69.868 76.934 70.9645 77.5432L60 103.98L50.6193 81.198ZM72.9137 78.3959C73.1574 78.3959 73.401 78.5178 73.6447 78.5178C74.6193 78.5178 75.4721 78.2741 76.203 77.7868L91.1878 92.7716L61.9492 104.832L72.9137 78.3959ZM92.7716 91.1878L77.665 76.203C78.1523 75.4721 78.3959 74.6193 78.3959 73.6447C78.3959 73.401 78.3959 73.1574 78.2741 72.9137L104.711 61.9492L92.7716 91.1878Z" fill="white" fill-opacity="0.4"/>
</g>
</svg>
